<svg width="160" height="160" viewBox="0 0 160 160" fill="none" xmlns="http://www.w3.org/2000/svg">
<path fill-rule="evenodd" clip-rule="evenodd" d="M80 160C124.183 160 160 124.183 160 80C160 35.8171 124.183 0 80 0C35.8172 0 0 35.8171 0 80C0 124.183 35.8172 160 80 160ZM130.197 107.441C131.453 107.876 132.813 107.851 133.76 107.376C134.219 107.116 134.493 106.856 134.6 106.492C134.782 105.914 133.878 105.223 132.044 104.064C130.659 103.194 129.178 103.08 126.822 103.511C126.763 103.521 126.706 103.52 126.65 103.52C126.599 103.519 126.55 103.519 126.501 103.525L126.454 103.529C126.427 103.531 126.401 103.532 126.375 103.533C126.355 103.534 126.336 103.534 126.316 103.533C122.867 103.807 120.083 100.602 119.542 99.917C118.623 98.7617 118.816 97.0823 119.969 96.1587C121.09 95.2708 122.796 95.4314 123.718 96.583C124.042 96.9824 124.472 97.3853 124.875 97.6956C128.246 90.3074 130.371 81.8066 124.479 73.1777C114.889 59.1323 101.692 52.1362 84.1314 51.7869C78.843 51.6836 72.5042 51.9321 65.7916 52.1956L65.7587 52.197C50.1592 52.8174 39.095 53.0562 32.8723 51.1379C32.8361 51.1301 32.802 51.1174 32.7677 51.104L32.7556 51.0991C32.7298 51.0889 32.7037 51.0786 32.6765 51.0701C30.8859 50.4961 29.4797 49.7437 28.5292 48.7451C27.5075 47.6792 27.5467 45.9854 28.6147 44.9656C29.6969 43.9102 31.37 43.9885 32.3846 45.0513C32.4512 45.1179 32.5352 45.1816 32.6257 45.2439C32.6582 45.2661 32.6916 45.2881 32.7253 45.3101L32.8102 45.365L32.8545 45.3936C35.2076 43.3289 38.7106 41.5818 41.9216 40.02L42.0972 39.9343C42.2542 39.8577 42.4155 39.7795 42.5798 39.7L42.9789 39.5066C40.2484 39.8132 36.6351 40.5798 33.004 41.9668C28.2907 43.7712 26.1156 45.6646 25.6528 46.834C23.6557 51.8511 32.673 56.3081 36.6458 57.9912C42.1921 60.3411 59.3616 63.625 66.7911 64.363C71.4759 64.8232 74.3986 66.228 76.0896 67.3655C81.0912 64.1921 85.0107 61.8601 86.1641 61.1826C87.3638 60.3518 89.069 60.8616 89.8166 62.1311C90.5641 63.4041 90.1405 65.0405 88.8732 65.793C74.5837 74.2046 52.2026 89.0593 49.1019 95.5098C48.0233 97.988 47.5106 102.548 49.7641 106.977C52.8897 113.107 60.5719 117.671 71.985 120.17C97.3137 125.715 115.224 114.462 119.303 108.806C118.901 108.489 118.502 108.161 118.207 107.762C117.317 106.581 117.552 104.909 118.73 104.021C119.908 103.13 121.585 103.365 122.468 104.545C123.005 105.197 125.819 106.057 127.512 106.574L127.523 106.578L127.54 106.583C128.446 106.863 129.354 107.143 130.197 107.441ZM59.3758 78.7473C59.8991 78.3621 60.4189 77.9771 60.9493 77.5884C59.8101 77.1782 58.7777 76.9573 58.1583 77.1428C58.3648 77.5635 58.8133 78.1411 59.3758 78.7473ZM130.563 98.02C131.909 98.1697 133.294 98.5334 134.614 99.3713C137.064 100.908 141.129 103.458 139.705 108.072C139.175 109.783 137.968 111.202 136.291 112.087L136.266 112.1L136.234 112.117C136.211 112.129 136.189 112.141 136.167 112.151C133.942 113.274 131.051 113.395 128.438 112.49C127.648 112.208 126.804 111.951 125.96 111.695L125.656 111.6L125.457 111.537C125.243 111.469 125.031 111.402 124.82 111.334C124.606 111.266 124.393 111.198 124.18 111.131C122.286 114.215 118.388 117.671 112.895 120.566C103.027 125.768 88.1114 129.17 70.8423 125.394C57.6279 122.499 48.9382 117.118 45.008 109.402C41.9109 103.322 42.5873 97.0894 44.2462 93.2812C45.7343 90.1826 49.9314 86.1638 55.1217 82.0171C53.8081 80.498 52.6405 78.6118 52.6903 76.6826C52.7259 75.1316 53.502 73.7695 54.8654 72.8459C58.3897 70.4392 63.1102 72.3823 65.9972 74.0298C67.6597 72.8889 69.3151 71.7727 70.9277 70.7102C69.7743 70.2822 68.2542 69.8794 66.2678 69.6868C59.237 68.988 41.0174 65.6504 34.5668 62.9119C18.8854 56.269 19.1418 48.7524 20.6903 44.8586C23.4421 37.9448 38.7426 33.8442 45.8233 34.0046C49.1874 34.0793 51.2343 35.1169 51.9214 37.0925C53.2244 40.4585 49.3146 42.3638 44.3261 44.7949L44.2462 44.8337C42.9326 45.4719 41.4161 46.2136 39.9921 46.9873C47.1369 47.5793 57.6493 47.1692 65.5487 46.8555C72.3517 46.5845 78.7809 46.3313 84.2346 46.4382C103.38 46.8198 118.406 54.7998 128.887 70.1575C135.736 80.1948 133.724 90.3003 130.563 98.02ZM64.9999 91.6682C63.4307 91.6682 62.1621 92.9382 62.1621 94.5093C62.1621 96.0837 63.4307 97.3538 64.9999 97.3538C66.5691 97.3538 67.8378 96.0837 67.8378 94.5093C67.8378 92.9382 66.5691 91.6682 64.9999 91.6682ZM91.7568 100.197C90.1876 100.197 88.9189 101.467 88.9189 103.038C88.9189 104.612 90.1876 105.882 91.7568 105.882C93.326 105.882 94.5946 104.612 94.5946 103.038C94.5946 101.467 93.326 100.197 91.7568 100.197Z" fill="white"/>
</svg>
